<svg version="1.2" xmlns="http://www.w3.org/2000/svg" viewBox="0 0 1920 205" width="1920" height="205">
	<style>
		tspan { white-space:pre } 
		.s0 { fill: #1a2e05 } 
	</style>
	<g>
		<path id="IKRAM HUSSAIN SIYAM" fill-rule="evenodd" class="s0" d="m66.76 167.19h-54.44v-21.02h16.9v-78.84h-16.9v-21.21h54.44v21.21h-17.08v78.84h17.08zm43.15 0h-20.59v-104.3h16.9v-16.77h20.46v21.21h-16.77v28.91h13.08v-16.77h17.11v-16.58h16.73v-16.77h20.78v21.21h-17.1v16.58h-16.73v16.58h-17.1v12.14h17.08v16.77h16.74v16.76h17.11v21.03h-20.78v-16.59h-16.73v-16.76h-17.11v-16.77h-13.08zm111 0h-20.59v-104.3h16.9v-16.77h54.31v16.77h17.08v54.18h-17.1v16.77h-8.18v12.33h16.71v21.02h-20.4v-16.58h-17.15v-16.77h-21.58zm0-99.85v45.29h46.92v-45.29zm111 99.85h-20.58v-87.72h16.89v-16.58h16.77v-16.76h20.77v16.76h16.74v16.58h17.11v87.72h-20.77v-33.35h-46.93zm0-83.27v28.72h46.93v-28.72h-16.77v-16.58h-13.39v16.58zm112 83.27h-20.58v-104.3h16.89v-16.76h20.46v16.76h17.08v33.35h13.08v-33.35h17.08v-16.76h20.65v16.76h16.7v104.3h-20.4v-99.85h-13.26v33.16h-17.08v50.11h-20.46v-50.11h-17.08v-33.16h-13.08zm182 0h-20.58v-121.07h20.58v50.12h13.08v-16.77h20.77v16.77h13.08v-50.12h20.77v121.07h-20.77v-50.12h-46.93zm161.62 0h-54.31v-16.58h-16.89v-104.49h20.58v100.05h46.93v-100.05h20.77v104.49h-17.08zm111 0h-54.31v-16.58h-16.89v-21.21h20.58v16.77h46.93v-29.1h-50.62v-16.58h-16.89v-37.6h16.89v-16.77h54.31v16.77h17.08v21.02h-20.77v-16.58h-46.93v28.91h50.62v16.39h17.08v37.98h-17.08zm111 0h-54.31v-16.58h-16.89v-21.21h20.58v16.77h46.93v-29.1h-50.62v-16.58h-16.89v-37.6h16.89v-16.77h54.31v16.77h17.08v21.02h-20.77v-16.58h-46.93v28.91h50.62v16.39h17.08v37.98h-17.08zm60.38 0h-20.58v-87.72h16.89v-16.58h16.77v-16.77h20.77v16.77h16.74v16.58h17.11v87.72h-20.77v-33.35h-46.93zm0-83.28v28.72h46.93v-28.72h-16.77v-16.58h-13.39v16.58zm144.85 83.28h-54.43v-21.02h16.89v-78.84h-16.89v-21.21h54.43v21.21h-17.08v78.84h17.08zm44.15 0h-20.58v-121.07h20.58v16.77h16.74v16.58h17.11v49.93h13.08v-83.28h20.77v121.07h-20.77v-16.58h-16.74v-16.77h-17.11v-49.93h-13.08zm198.62 0h-54.31v-16.58h-16.89v-21.21h20.58v16.77h46.93v-29.09h-50.62v-16.58h-16.89v-37.61h16.89v-16.77h54.31v16.77h17.08v21.02h-20.77v-16.58h-46.93v28.91h50.62v16.39h17.08v37.98h-17.08zm94.23 0h-54.43v-21.02h16.89v-78.84h-16.89v-21.21h54.43v21.21h-17.08v78.84h17.08zm77 0h-20.77v-66.7h-16.74v-16.58h-16.92v-37.79h20.58v33.35h16.77v16.77h13.39v-16.77h16.77v-33.35h20.77v37.79h-17.11v16.58h-16.74zm68.15 0h-20.58v-87.72h16.89v-16.58h16.77v-16.76h20.77v16.76h16.74v16.58h17.11v87.72h-20.77v-33.34h-46.93zm0-83.28v28.72h46.93v-28.72h-16.77v-16.58h-13.39v16.58zm111 83.28h-20.59v-104.3h16.9v-16.77h20.46v16.77h17.08v33.34h13.07v-33.34h17.08v-16.77h20.65v16.77h16.71v104.3h-20.4v-99.86h-13.26v33.16h-17.08v50.12h-20.46v-50.12h-17.08v-33.16h-13.08z"/>
	</g>
</svg>